<svg width="24" height="24" viewBox="0 0 24 24" fill="none" xmlns="http://www.w3.org/2000/svg">
<path fill-rule="evenodd" clip-rule="evenodd" d="M20.75 9.5V5.5C20.75 4.50544 20.3549 3.55161 19.6517 2.84835C18.9484 2.14509 17.9946 1.75 17 1.75H5C4.00544 1.75 3.05161 2.14509 2.34835 2.84835C1.64509 3.55161 1.25 4.50544 1.25 5.5V15.5C1.25 16.4946 1.64509 17.4484 2.34835 18.1517C3.05161 18.8549 4.00544 19.25 5 19.25H12C12.1989 19.25 12.3897 19.171 12.5303 19.0303C12.671 18.8897 12.75 18.6989 12.75 18.5C12.75 18.3011 12.671 18.1103 12.5303 17.9697C12.3897 17.829 12.1989 17.75 12 17.75H5C4.40326 17.75 3.83097 17.5129 3.40901 17.091C2.98705 16.669 2.75 16.0967 2.75 15.5V5.5C2.75 4.90326 2.98705 4.33097 3.40901 3.90901C3.83097 3.48705 4.40326 3.25 5 3.25H17C17.5967 3.25 18.169 3.48705 18.591 3.90901C19.0129 4.33097 19.25 4.90326 19.25 5.5V9.5C19.25 9.69891 19.329 9.88968 19.4697 10.0303C19.6103 10.171 19.8011 10.25 20 10.25C20.1989 10.25 20.3897 10.171 20.5303 10.0303C20.671 9.88968 20.75 9.69891 20.75 9.5Z" fill="#919191"/>
<path fill-rule="evenodd" clip-rule="evenodd" d="M6 7.25H16C16.1989 7.25 16.3897 7.17098 16.5303 7.03033C16.671 6.88968 16.75 6.69891 16.75 6.5C16.75 6.30109 16.671 6.11032 16.5303 5.96967C16.3897 5.82902 16.1989 5.75 16 5.75H6C5.80109 5.75 5.61032 5.82902 5.46967 5.96967C5.32902 6.11032 5.25 6.30109 5.25 6.5C5.25 6.69891 5.32902 6.88968 5.46967 7.03033C5.61032 7.17098 5.80109 7.25 6 7.25ZM6 11.25H15C15.1989 11.25 15.3897 11.171 15.5303 11.0303C15.671 10.8897 15.75 10.6989 15.75 10.5C15.75 10.3011 15.671 10.1103 15.5303 9.96967C15.3897 9.82902 15.1989 9.75 15 9.75H6C5.80109 9.75 5.61032 9.82902 5.46967 9.96967C5.32902 10.1103 5.25 10.3011 5.25 10.5C5.25 10.6989 5.32902 10.8897 5.46967 11.0303C5.61032 11.171 5.80109 11.25 6 11.25ZM6 15.25H9C9.19891 15.25 9.38968 15.171 9.53033 15.0303C9.67098 14.8897 9.75 14.6989 9.75 14.5C9.75 14.3011 9.67098 14.1103 9.53033 13.9697C9.38968 13.829 9.19891 13.75 9 13.75H6C5.80109 13.75 5.61032 13.829 5.46967 13.9697C5.32902 14.1103 5.25 14.3011 5.25 14.5C5.25 14.6989 5.32902 14.8897 5.46967 15.0303C5.61032 15.171 5.80109 15.25 6 15.25ZM22.212 16.426C22.0642 16.1462 21.987 15.8345 21.987 15.518V14.7C21.987 13.785 21.6235 12.9075 20.9765 12.2605C20.3295 11.6135 19.452 11.25 18.537 11.25H18.312C17.8589 11.2497 17.4101 11.3388 16.9914 11.5121C16.5727 11.6854 16.1923 11.9395 15.8719 12.2599C15.5515 12.5803 15.2974 12.9607 15.1241 13.3794C14.9508 13.7981 14.8617 14.2469 14.862 14.7V15.518C14.862 15.834 14.785 16.146 14.638 16.426L14.321 17.027C14.1747 17.3058 14.0929 17.614 14.0816 17.9287C14.0704 18.2434 14.13 18.5566 14.256 18.8451C14.3821 19.1337 14.5713 19.3903 14.8098 19.5959C15.0483 19.8015 15.33 19.9509 15.634 20.033C17.562 20.545 19.295 20.543 21.217 20.012C21.5156 19.9303 21.7923 19.7831 22.0268 19.581C22.2613 19.3789 22.4478 19.1271 22.5727 18.8438C22.6976 18.5606 22.7578 18.253 22.7489 17.9436C22.7399 17.6341 22.6621 17.3306 22.521 17.055C22.4258 16.8416 22.3227 16.6318 22.212 16.426ZM20.884 17.125C20.971 17.29 21.072 17.479 21.157 17.679L21.183 17.734C21.2233 17.811 21.2458 17.8961 21.2489 17.983C21.252 18.0699 21.2355 18.1564 21.2008 18.2361C21.1661 18.3158 21.114 18.3867 21.0482 18.4437C20.9825 18.5006 20.9049 18.542 20.821 18.565L20.818 18.566C19.166 19.022 17.677 19.023 16.021 18.584C15.9345 18.5602 15.8544 18.5174 15.7866 18.4585C15.7189 18.3997 15.6652 18.3264 15.6295 18.2441C15.5938 18.1618 15.577 18.0725 15.5804 17.9828C15.5838 17.8932 15.6072 17.8054 15.649 17.726L15.965 17.125C16.2258 16.6295 16.362 16.0779 16.362 15.518V14.7C16.362 14.1828 16.5674 13.6868 16.9331 13.3211C17.2988 12.9554 17.7948 12.75 18.312 12.75H18.537C19.0542 12.75 19.5502 12.9554 19.9159 13.3211C20.2816 13.6868 20.487 14.1828 20.487 14.7V15.518C20.487 16.078 20.623 16.629 20.884 17.125ZM17.915 22.25H18.915C19.1139 22.25 19.3047 22.171 19.4453 22.0303C19.586 21.8897 19.665 21.6989 19.665 21.5C19.665 21.3011 19.586 21.1103 19.4453 20.9697C19.3047 20.829 19.1139 20.75 18.915 20.75H17.915C17.7161 20.75 17.5253 20.829 17.3847 20.9697C17.244 21.1103 17.165 21.3011 17.165 21.5C17.165 21.6989 17.244 21.8897 17.3847 22.0303C17.5253 22.171 17.7161 22.25 17.915 22.25Z" fill="#919191"/>
</svg>
