<?xml version="1.0" standalone="no"?>
<!DOCTYPE svg PUBLIC "-//W3C//DTD SVG 20010904//EN"
 "http://www.w3.org/TR/2001/REC-SVG-20010904/DTD/svg10.dtd">
<svg version="1.0" xmlns="http://www.w3.org/2000/svg"
 width="1162.000000pt" height="898.000000pt" viewBox="0 0 1162.000000 898.000000"
 preserveAspectRatio="xMidYMid meet">

<g transform="translate(0.000000,898.000000) scale(0.100000,-0.100000)"
fill="#000000" stroke="none">
<path d="M6152 7144 c-18 -10 -45 -33 -60 -52 l-27 -35 -3 -2285 c-2 -2545 -9
-2323 66 -2380 51 -39 133 -39 184 0 74 57 68 -162 68 2368 0 2085 -1 2275
-16 2307 -37 77 -139 114 -212 77z"/>
<path d="M2952 6344 c-18 -10 -45 -33 -60 -52 l-27 -35 -3 -1485 c-2 -1653 -8
-1524 66 -1580 29 -22 46 -27 92 -27 46 0 63 5 92 27 74 56 68 -71 68 1568 0
1636 5 1512 -67 1567 -43 33 -114 41 -161 17z"/>
<path d="M5512 6344 c-18 -10 -45 -33 -60 -52 l-27 -35 -3 -1485 c-2 -1653 -8
-1524 66 -1580 29 -22 46 -27 92 -27 46 0 63 5 92 27 74 56 68 -71 68 1568 0
1636 5 1512 -67 1567 -43 33 -114 41 -161 17z"/>
<path d="M6792 6344 c-18 -10 -45 -33 -60 -52 l-27 -35 -3 -1485 c-2 -1653 -8
-1524 66 -1580 29 -22 46 -27 92 -27 46 0 63 5 92 27 74 56 68 -71 68 1568 0
1636 5 1512 -67 1567 -43 33 -114 41 -161 17z"/>
<path d="M8072 6344 c-18 -10 -45 -33 -60 -52 l-27 -35 -3 -1485 c-2 -1653 -8
-1524 66 -1580 29 -22 46 -27 92 -27 46 0 63 5 92 27 74 56 68 -71 68 1568 0
1636 5 1512 -67 1567 -43 33 -114 41 -161 17z"/>
<path d="M2312 5704 c-18 -10 -45 -33 -60 -52 l-27 -35 -3 -844 c-3 -941 -7
-886 66 -941 51 -39 133 -39 184 0 72 55 68 2 68 928 0 924 4 873 -67 927 -43
33 -114 41 -161 17z"/>
<path d="M3592 5704 c-18 -10 -45 -33 -60 -52 l-27 -35 -3 -844 c-3 -941 -7
-886 66 -941 51 -39 133 -39 184 0 72 55 68 2 68 928 0 924 4 873 -67 927 -43
33 -114 41 -161 17z"/>
<path d="M4872 5704 c-18 -10 -45 -33 -60 -52 l-27 -35 -3 -844 c-3 -941 -7
-886 66 -941 51 -39 133 -39 184 0 72 55 68 2 68 928 0 924 4 873 -67 927 -43
33 -114 41 -161 17z"/>
<path d="M7432 5704 c-18 -10 -45 -33 -60 -52 l-27 -35 -3 -844 c-3 -941 -7
-886 66 -941 51 -39 133 -39 184 0 72 55 68 2 68 928 0 924 4 873 -67 927 -43
33 -114 41 -161 17z"/>
<path d="M8712 5704 c-18 -10 -45 -33 -60 -52 l-27 -35 -3 -844 c-3 -941 -7
-886 66 -941 51 -39 133 -39 184 0 72 55 68 2 68 928 0 924 4 873 -67 927 -43
33 -114 41 -161 17z"/>
<path d="M1672 5224 c-18 -10 -45 -33 -60 -52 l-27 -35 -3 -364 c-3 -406 -3
-409 66 -461 51 -39 133 -39 184 0 67 51 68 56 68 448 0 391 -1 397 -67 447
-43 33 -114 41 -161 17z"/>
<path d="M4232 5224 c-18 -10 -45 -33 -60 -52 l-27 -35 -3 -364 c-3 -406 -3
-409 66 -461 51 -39 133 -39 184 0 67 51 68 56 68 448 0 391 -1 397 -67 447
-43 33 -114 41 -161 17z"/>
<path d="M9352 5224 c-18 -10 -45 -33 -60 -52 l-27 -35 -3 -364 c-3 -406 -3
-409 66 -461 51 -39 133 -39 184 0 67 51 68 56 68 448 0 391 -1 397 -67 447
-43 33 -114 41 -161 17z"/>
</g>
</svg>
