<svg width="24" height="24" viewBox="0 0 24 24" fill="none" xmlns="http://www.w3.org/2000/svg">
<path d="M2.4045 11.9712C3.2805 13.9113 4.7724 16.0131 6.4974 17.7381C8.3373 19.578 10.3671 21.0351 12.213 21.8403C13.218 22.2789 14.1171 22.4982 14.874 22.4982C15.6264 22.4982 16.2381 22.281 16.6722 21.8466L18.4134 20.106C18.9423 19.5765 18.8949 18.6681 18.3075 18.0804L15.7419 15.5145C15.1539 14.9271 14.2449 14.88 13.7163 15.4089L12.9174 16.2078C12.696 16.3734 11.3277 15.9519 9.7884 14.4126C8.2482 12.8727 7.8258 11.5035 7.9923 11.2842L8.7921 10.4844C9.321 9.9552 9.2736 9.0462 8.6862 8.4588L6.12 5.8932C5.532 5.3058 4.6236 5.2581 4.0944 5.7876L2.3538 7.5282C1.4847 8.397 1.5027 9.975 2.4042 11.9712H2.4045ZM3.2025 8.3766L4.9434 6.636C4.9554 6.624 4.9794 6.6168 5.0103 6.6168C5.0781 6.6168 5.181 6.6507 5.2719 6.7416L7.8375 9.3072C7.9701 9.4398 7.9815 9.5979 7.9434 9.636L7.1436 10.4355C6.1494 11.4303 7.2945 13.6158 8.9397 15.261C9.759 16.08 10.6599 16.7346 11.4765 17.1033C12.8205 17.7105 13.4874 17.3349 13.7649 17.0568L14.5647 16.2573C14.6031 16.2189 14.7606 16.2306 14.8935 16.3629L17.4588 18.9288C17.5914 19.0614 17.6028 19.2192 17.5647 19.2573L15.8238 20.9982C15.3408 21.4815 14.1705 21.3852 12.693 20.7402C10.9812 19.9935 9.0822 18.6258 7.3458 16.8897C5.7192 15.2631 4.317 13.29 3.498 11.4771C2.8362 10.0122 2.7255 8.8533 3.2022 8.3766H3.2025ZM22.2885 13.3011C22.2885 6.7941 16.9944 1.5 10.4874 1.5V2.7C16.3329 2.7 21.0885 7.4559 21.0885 13.3011H22.2885Z" fill="#919191"/>
<path d="M10.71 4.77783V5.97783C14.871 5.97783 18.2565 9.36303 18.2565 13.524H19.4565C19.4565 8.70123 15.5325 4.77783 10.71 4.77783Z" fill="#919191"/>
<path d="M15.2016 13.524H16.4016C16.4016 10.386 13.8486 7.8324 10.7103 7.8324V9.0324C13.1868 9.0324 15.2016 11.0475 15.2016 13.524Z" fill="#919191"/>
</svg>
